<svg width="42" height="33" viewBox="0 0 42 33" fill="none" xmlns="http://www.w3.org/2000/svg">
<path d="M11.96 25.024C11.96 25.92 11.6827 26.6453 11.128 27.2C10.5733 27.7333 9.848 28 8.952 28H3.64V8.576H3.16L3.48 5.6H8.952C9.848 5.6 10.5733 5.87733 11.128 6.432C11.6827 6.96533 11.96 7.68 11.96 8.576V25.024ZM8.76 8.576H6.68V25.024H8.76C8.86667 25.024 8.92 24.9707 8.92 24.864V8.736C8.92 8.62933 8.86667 8.576 8.76 8.576ZM20.654 25.024L20.398 28H13.39V8.576H12.91L13.23 5.6H20.654L20.334 8.576H16.43V15.296H20.014L19.694 18.272H16.43V25.024H20.654ZM27.5213 5.6H30.5613L28.5773 28H23.2653L21.2812 5.6H24.3213L25.9213 23.296L27.5213 5.6ZM31.3588 8.576V5.6H40.1588V8.576H37.2788V28H34.2388V8.576H31.3588Z" fill="white"/>
<rect width="42" height="1" fill="white"/>
<rect y="31" width="42" height="1" fill="white"/>
</svg>
